<svg xmlns="http://www.w3.org/2000/svg" viewBox="0 0 720 420" font-family="'Segoe UI','Microsoft YaHei',sans-serif">
  <rect width="720" height="420" fill="#f6f8fa"/>
  <text x="24" y="30" font-size="17" font-weight="bold" fill="#3451b2">I2C 一帧的旅程：START → 地址 → ACK → 数据 → STOP</text>
  <text x="24" y="50" font-size="12" fill="#666">铁律：SCL 低时 SDA 才换数据；SCL 高时 SDA 动 = START/STOP。第 9 拍轮到老二（从机）说话</text>

  <!-- 线名 -->
  <text x="52" y="106" font-size="13" font-weight="bold" fill="#3451b2" font-family="Consolas,monospace">SCL</text>
  <text x="52" y="206" font-size="13" font-weight="bold" fill="#d97706" font-family="Consolas,monospace">SDA</text>

  <!-- 电平参考虚线 -->
  <line x1="90" y1="96" x2="700" y2="96" stroke="#e2e8f0" stroke-dasharray="3 3"/>
  <line x1="90" y1="126" x2="700" y2="126" stroke="#e2e8f0" stroke-dasharray="3 3"/>
  <line x1="90" y1="196" x2="700" y2="196" stroke="#e2e8f0" stroke-dasharray="3 3"/>
  <line x1="90" y1="226" x2="700" y2="226" stroke="#e2e8f0" stroke-dasharray="3 3"/>

  <!-- SCL：START 期间保持高，之后 18 拍 -->
  <g fill="#3451b2">
    <rect x="90" y="90" width="70" height="12"/>
    <rect x="168" y="90" width="16" height="12"/><rect x="198" y="90" width="16" height="12"/>
    <rect x="228" y="90" width="16" height="12"/><rect x="258" y="90" width="16" height="12"/>
    <rect x="288" y="90" width="16" height="12"/><rect x="318" y="90" width="16" height="12"/>
    <rect x="348" y="90" width="16" height="12"/><rect x="378" y="90" width="16" height="12"/>
    <rect x="408" y="90" width="16" height="12"/>
    <rect x="438" y="90" width="16" height="12"/><rect x="468" y="90" width="16" height="12"/>
    <rect x="498" y="90" width="16" height="12"/><rect x="528" y="90" width="16" height="12"/>
    <rect x="558" y="90" width="16" height="12"/><rect x="588" y="90" width="16" height="12"/>
    <rect x="618" y="90" width="16" height="12"/><rect x="648" y="90" width="16" height="12"/>
    <rect x="678" y="90" width="26" height="12"/>
  </g>
  <g stroke="#3451b2" stroke-width="3">
    <line x1="160" y1="96" x2="160" y2="126"/>
    <line x1="168" y1="96" x2="168" y2="126"/><line x1="184" y1="96" x2="184" y2="126"/>
    <line x1="198" y1="96" x2="198" y2="126"/><line x1="214" y1="96" x2="214" y2="126"/>
    <line x1="228" y1="96" x2="228" y2="126"/><line x1="244" y1="96" x2="244" y2="126"/>
    <line x1="258" y1="96" x2="258" y2="126"/><line x1="274" y1="96" x2="274" y2="126"/>
    <line x1="288" y1="96" x2="288" y2="126"/><line x1="304" y1="96" x2="304" y2="126"/>
    <line x1="318" y1="96" x2="318" y2="126"/><line x1="334" y1="96" x2="334" y2="126"/>
    <line x1="348" y1="96" x2="348" y2="126"/><line x1="364" y1="96" x2="364" y2="126"/>
    <line x1="378" y1="96" x2="378" y2="126"/><line x1="394" y1="96" x2="394" y2="126"/>
    <line x1="408" y1="96" x2="408" y2="126"/><line x1="424" y1="96" x2="424" y2="126"/>
    <line x1="438" y1="96" x2="438" y2="126"/><line x1="454" y1="96" x2="454" y2="126"/>
    <line x1="468" y1="96" x2="468" y2="126"/><line x1="484" y1="96" x2="484" y2="126"/>
    <line x1="498" y1="96" x2="498" y2="126"/><line x1="514" y1="96" x2="514" y2="126"/>
    <line x1="528" y1="96" x2="528" y2="126"/><line x1="544" y1="96" x2="544" y2="126"/>
    <line x1="558" y1="96" x2="558" y2="126"/><line x1="574" y1="96" x2="574" y2="126"/>
    <line x1="588" y1="96" x2="588" y2="126"/><line x1="604" y1="96" x2="604" y2="126"/>
    <line x1="618" y1="96" x2="618" y2="126"/><line x1="634" y1="96" x2="634" y2="126"/>
    <line x1="648" y1="96" x2="648" y2="126"/><line x1="664" y1="96" x2="664" y2="126"/>
    <line x1="678" y1="96" x2="678" y2="126"/><line x1="704" y1="96" x2="704" y2="126"/>
  </g>
  <line x1="160" y1="123" x2="704" y2="123" stroke="#3451b2" stroke-width="3"/>

  <!-- SDA：跳变全部落在 SCL 低区；采样窗（SCL 高）内电平稳定
       START↓ @100(SCL高) | A6..A0=1010000 W=0 | ACK低 | D=01101001 | ACK低 | STOP↑ @698(SCL高) -->
  <polyline points="90,196 100,196 100,226 164,226 164,196 190,196 190,226 220,226 220,196 250,196 250,226 460,226 460,196 520,196 520,226 550,226 550,196 580,196 580,226 640,226 640,196 670,196 670,226 698,226 698,196 704,196"
    fill="none" stroke="#d97706" stroke-width="3"/>

  <!-- 位标签：对准 SCL 脉冲中心（采样点）；高电平标上方、低电平标下方 -->
  <g font-size="10" fill="#666" text-anchor="middle" font-family="Consolas,monospace">
    <text x="176" y="188">A6=1</text><text x="206" y="242">A5=0</text><text x="236" y="188">A4=1</text>
    <text x="266" y="242">A3=0</text><text x="296" y="242">A2=0</text><text x="326" y="242">A1=0</text>
    <text x="356" y="242">A0=0</text><text x="386" y="242">W=0</text>
    <text x="416" y="242" fill="#3eaf7c" font-weight="bold">ACK=0</text>
    <text x="446" y="242">D7=0</text><text x="476" y="188">D6=1</text><text x="506" y="188">D5=1</text>
    <text x="536" y="242">D4=0</text><text x="566" y="188">D3=1</text><text x="596" y="242">D2=0</text>
    <text x="626" y="242">D1=0</text><text x="656" y="188">D0=1</text>
    <text x="686" y="242" fill="#3eaf7c" font-weight="bold">ACK</text>
  </g>
  <text x="95" y="242" font-size="10" fill="#d97706" font-weight="bold">START</text>
  <text x="710" y="188" font-size="10" fill="#d97706" font-weight="bold" text-anchor="end">STOP</text>

  <!-- 阶段高亮扫过 -->
  <rect x="90" y="70" width="70" height="200" fill="#d97706" opacity="0.10">
    <animate attributeName="x" calcMode="discrete" values="90;160;408;438;664;678;90;90" keyTimes="0;0.16;0.32;0.48;0.64;0.80;0.92;1" dur="16s" repeatCount="indefinite"/>
    <animate attributeName="width" calcMode="discrete" values="70;248;30;226;44;26;0;0" keyTimes="0;0.16;0.32;0.48;0.64;0.80;0.92;1" dur="16s" repeatCount="indefinite"/>
  </rect>

  <!-- 阶段字幕 -->
  <g font-size="13" font-weight="bold" fill="#3451b2">
    <g opacity="1"><animate attributeName="opacity" calcMode="discrete" values="1;0;0;0;0;0;0;0" keyTimes="0;0.16;0.32;0.48;0.64;0.80;0.92;1" dur="16s" repeatCount="indefinite"/>
      <text x="36" y="330">① 空闲：两根线都被上拉电阻"托"在高电平——谁也不说话</text></g>
    <g opacity="0"><animate attributeName="opacity" calcMode="discrete" values="0;1;0;0;0;0;0;0" keyTimes="0;0.16;0.32;0.48;0.64;0.80;0.92;1" dur="16s" repeatCount="indefinite"/>
      <text x="36" y="330">② START：SCL 还高着，SDA 先跳低——全体注意，老大要讲话了</text></g>
    <g opacity="0"><animate attributeName="opacity" calcMode="discrete" values="0;0;1;0;0;0;0;0" keyTimes="0;0.16;0.32;0.48;0.64;0.80;0.92;1" dur="16s" repeatCount="indefinite"/>
      <text x="36" y="330">③ 地址 7 位 + R/W：SCL 低时换数据、高时采样，点名 0x50 写模式</text></g>
    <g opacity="0"><animate attributeName="opacity" calcMode="discrete" values="0;0;0;1;0;0;0;0" keyTimes="0;0.16;0.32;0.48;0.64;0.80;0.92;1" dur="16s" repeatCount="indefinite"/>
      <text x="36" y="330">④ 第 9 拍 ACK：老大松手，被点名的老二把 SDA 拉低——"到！"</text></g>
    <g opacity="0"><animate attributeName="opacity" calcMode="discrete" values="0;0;0;0;1;0;0;0" keyTimes="0;0.16;0.32;0.48;0.64;0.80;0.92;1" dur="16s" repeatCount="indefinite"/>
      <text x="36" y="330">⑤ 数据字节 0x69：8 拍 8 位，跳变全部躲在 SCL 低区里完成</text></g>
    <g opacity="0"><animate attributeName="opacity" calcMode="discrete" values="0;0;0;0;0;1;0;0" keyTimes="0;0.16;0.32;0.48;0.64;0.80;0.92;1" dur="16s" repeatCount="indefinite"/>
      <text x="36" y="330">⑥ 再 ACK，然后 STOP：SCL 高时 SDA 回升——散会，总线归还</text></g>
    <g opacity="0"><animate attributeName="opacity" calcMode="discrete" values="0;0;0;0;0;0;1;1" keyTimes="0;0.16;0.32;0.48;0.64;0.80;0.92;1" dur="16s" repeatCount="indefinite"/>
      <text x="36" y="330">整帧 18 拍走完一次"点名+交货"——挂逻辑分析仪对照真波形 →</text></g>
  </g>
  <g font-size="11" fill="#666">
    <g opacity="1"><animate attributeName="opacity" calcMode="discrete" values="1;0;0;0;0;0;0;0" keyTimes="0;0.16;0.32;0.48;0.64;0.80;0.92;1" dur="16s" repeatCount="indefinite"/>
      <text x="36" y="350">开漏 + 上拉：谁都只能拉低，想高就放手（回 S3 第三节）</text></g>
    <g opacity="0"><animate attributeName="opacity" calcMode="discrete" values="0;1;0;0;0;0;0;0" keyTimes="0;0.16;0.32;0.48;0.64;0.80;0.92;1" dur="16s" repeatCount="indefinite"/>
      <text x="36" y="350">SCL 高电平期间 SDA 跳变 = 控制信号，这是 I2C 的交通规则</text></g>
    <g opacity="0"><animate attributeName="opacity" calcMode="discrete" values="0;0;1;0;0;0;0;0" keyTimes="0;0.16;0.32;0.48;0.64;0.80;0.92;1" dur="16s" repeatCount="indefinite"/>
      <text x="36" y="350">先传高位（MSB）：A6 是地址最高位，W=0 表示主机要写</text></g>
    <g opacity="0"><animate attributeName="opacity" calcMode="discrete" values="0;0;0;1;0;0;0;0" keyTimes="0;0.16;0.32;0.48;0.64;0.80;0.92;1" dur="16s" repeatCount="indefinite"/>
      <text x="36" y="350">ACK 是**接收方**拉低；没人拉低（NACK=1）= 没这个地址或出事了</text></g>
    <g opacity="0"><animate attributeName="opacity" calcMode="discrete" values="0;0;0;0;1;0;0;0" keyTimes="0;0.16;0.32;0.48;0.64;0.80;0.92;1" dur="16s" repeatCount="indefinite"/>
      <text x="36" y="350">数据段可连发多字节，每 8 位一个 ACK；注意观察：换数据都在 SCL 低区</text></g>
    <g opacity="0"><animate attributeName="opacity" calcMode="discrete" values="0;0;0;0;0;1;0;0" keyTimes="0;0.16;0.32;0.48;0.64;0.80;0.92;1" dur="16s" repeatCount="indefinite"/>
      <text x="36" y="350">STOP 之后总线回到空闲（双高），下一个主机才能开口</text></g>
    <g opacity="0"><animate attributeName="opacity" calcMode="discrete" values="0;0;0;0;0;0;1;1" keyTimes="0;0.16;0.32;0.48;0.64;0.80;0.92;1" dur="16s" repeatCount="indefinite"/>
      <text x="36" y="350">对照实验：E06 逻辑分析仪抓 OLED 的 I2C 帧，逐拍对上这张图</text></g>
  </g>
</svg>
